<?xml version="1.0" encoding="utf-8"?>
<!-- Generator: Adobe Illustrator 24.0.2, SVG Export Plug-In . SVG Version: 6.00 Build 0)  -->
<svg version="1.1" id="Layer_1" xmlns="http://www.w3.org/2000/svg" xmlns:xlink="http://www.w3.org/1999/xlink" x="0px" y="0px"
	 viewBox="0 0 1024 768" style="enable-background:new 0 0 1024 768;" xml:space="preserve">
<style type="text/css">
	.st0{fill:#F55D2C;}
	.st1{fill:#4D4D4D;}
	.st2{font-family:'MyriadPro-Regular';}
	.st3{font-size:140px;}
	.st4{fill:#666666;}
	.st5{font-family:'ShreeDev0714';}
	.st6{font-size:100px;}
</style>
<symbol  id="New_Symbol" viewBox="-168.94 -254.5 377.89 501">
	<g>
		<path class="st0" d="M208.94-62.88c-13.5-5.58-27.58-10.93-42.26-15.97c-97.73-33.55-191.07-42.76-269.15-41.92
			c-33.75,56.11-69.63,138.52-66.26,237.83c0.52,15.18,1.91,29.73,3.98,43.61c2.03,6.51,4.76,12.47,8.07,17.94
			c55.1,91.01,281.32,63.38,316.62,58.76c14.42-88.39,28.85-176.78,43.27-265.17C205.13-39.49,207.04-51.19,208.94-62.88z"/>
	</g>
	
		<text transform="matrix(1.1422 0 0 -1 -113.5864 -73.7041)" style="fill:#FFFFFF; font-family:'SukhumvitSet-Bold'; font-size:381.4259px;">B</text>
</symbol>
<use xlink:href="#New_Symbol"  width="377.89" height="501" id="XMLID_1_" x="-168.94" y="-254.5" transform="matrix(0.9153 0 0 -1 212.0563 280.5)" style="overflow:visible;"/>
<text transform="matrix(1 0 0 1 394.8696 167.7915)" class="st1 st2 st3">Big Boon</text>
<text transform="matrix(1 0 0 1 419.1289 310.7397)" class="st4 st5 st6">Shopping</text>
</svg>
